<?xml version="1.0" encoding="utf-8"?>
<!-- Generator: Adobe Illustrator 26.3.1, SVG Export Plug-In . SVG Version: 6.00 Build 0)  -->
<svg version="1.1" id="Calque_1" xmlns="http://www.w3.org/2000/svg" xmlns:xlink="http://www.w3.org/1999/xlink" x="0px" y="0px"
	 viewBox="0 0 14.2 14.2" style="enable-background:new 0 0 14.2 14.2;" xml:space="preserve">
<style type="text/css">
	.st0{fill:none;}
	.st1{fill:#D3D3D3;}
	.st2{fill:#FFFFFF;}
	.st3{fill:#3D893A;}
</style>
<rect x="-40.1" y="0.2" class="st0" width="56.1" height="13.8"/>
<g>
	<path class="st1" d="M2.3,11.5c-0.4,0-0.8-0.4-0.8-0.8V3.5c0-0.4,0.4-0.8,0.8-0.8h1.3c0.4,0,0.8,0.4,0.8,0.8V4h6.3
		c0.4,0,0.8,0.4,0.8,0.8v5.9c0,0.4-0.4,0.8-0.8,0.8H2.3z"/>
	<path d="M3.7,2.9c0.3,0,0.5,0.2,0.5,0.5v0.8h6.6c0.3,0,0.5,0.2,0.5,0.5v5.9c0,0.3-0.2,0.5-0.5,0.5H2.3c-0.3,0-0.5-0.2-0.5-0.5V4.8
		V3.5C1.8,3.2,2,3,2.3,3L3.7,2.9 M3.7,2.4H2.4c-0.6,0-1,0.5-1,1v1.3v5.9c0,0.6,0.5,1,1,1h8.5c0.6,0,1-0.5,1-1V4.8c0-0.6-0.5-1-1-1
		H4.8V3.5C4.7,2.9,4.2,2.4,3.7,2.4L3.7,2.4z"/>
</g>
<g>
	<path class="st2" d="M2.3,11.5c-0.3,0-0.5-0.1-0.7-0.3c-0.1-0.2-0.2-0.4-0.1-0.5l1.4-4.6C3,5.9,3.1,5.4,3.7,5.4h8.5
		c0.3,0,0.5,0.1,0.7,0.3c0,0.1,0.1,0.3,0,0.5l-1.4,4.6c-0.1,0.2-0.3,0.7-0.8,0.7H2.3z"/>
	<path d="M12.2,5.6c0.3,0,0.6,0.2,0.5,0.5l-1.4,4.6c-0.1,0.3-0.2,0.5-0.5,0.5H2.3c-0.3,0-0.6-0.3-0.5-0.5l1.3-4.5
		c0.1-0.3,0.2-0.5,0.5-0.5L12.2,5.6 M12.2,5.1H3.7c-0.5,0-0.8,0.3-1,0.9l-1.4,4.6c-0.1,0.3,0,0.6,0.2,0.8c0.2,0.3,0.5,0.4,0.9,0.4
		h8.5c0.7,0,0.9-0.7,1-0.9l1.4-4.6c0.1-0.3,0-0.6-0.2-0.8C12.8,5.3,12.5,5.1,12.2,5.1L12.2,5.1z"/>
</g>
<path class="st3" d="M4.2,4.2V3.5C4.2,3.2,4,3,3.7,3H2.4C2.1,3,1.9,3.2,1.9,3.5v0.7"/>
</svg>
